<?xml version="1.0" encoding="UTF-8" standalone="no"?><!DOCTYPE svg PUBLIC "-//W3C//DTD SVG 1.1//EN" "http://www.w3.org/Graphics/SVG/1.1/DTD/svg11.dtd"><svg width="100%" height="100%" viewBox="0 0 10667 4250" version="1.1" xmlns="http://www.w3.org/2000/svg" xmlns:xlink="http://www.w3.org/1999/xlink" xml:space="preserve" xmlns:serif="http://www.serif.com/" style="fill-rule:evenodd;clip-rule:evenodd;stroke-linecap:round;stroke-linejoin:round;stroke-miterlimit:1.5;"><g><path d="M2775.66,2484.76l0,563.218c13.907,44.83 42.086,77.767 91.125,93.32l259.102,2.196c40.256,-12.672 69.899,-42.589 86.733,-93.321l2.196,-563.217c-17.474,-41.445 -46.934,-70.905 -87.831,-88.929l-260.2,-1.098c-43.446,20.563 -74.027,49.702 -91.125,87.831Z" style="fill:#0b343a;stroke:#fff;stroke-width:0.54px;"/><path d="M5367.06,1082.09l-0,563.218c13.906,44.83 42.086,77.767 91.125,93.32l259.102,2.196c40.256,-12.672 69.899,-42.589 86.733,-93.321l2.196,-563.217c-17.475,-41.445 -46.935,-70.905 -87.831,-88.929l-260.2,-1.098c-43.447,20.563 -74.028,49.702 -91.125,87.831Z" style="fill:#0b343a;stroke:#fff;stroke-width:0.54px;"/><path d="M5374.27,1946.01c20.489,-37.247 49.213,-67.12 86.566,-89.377l238.519,1.256c37.675,20.644 67.018,49.62 87.831,87.128l-0,1115.45c-11.543,30.639 -31.319,55.787 -59.725,75.184l-307.761,-0c-24.849,-18.793 -39.56,-44.681 -45.672,-76.589l0.242,-1113.06Z" style="fill:#0b343a;stroke:#fff;stroke-width:0.54px;"/><path d="M8012.84,1001.76c46.614,20.489 84,49.213 111.854,86.566l-1.571,238.519c-25.836,37.675 -62.1,67.018 -109.04,87.831l-1395.97,-0c-38.343,-11.543 -69.817,-31.32 -94.091,-59.726l0,-307.76c23.519,-24.849 55.917,-39.56 95.85,-45.672l1392.97,0.242Z" style="fill:#0b343a;stroke:#fff;stroke-width:0.54px;"/><path d="M6520.08,1973.85l5.146,1094.46c12.173,31.089 33.827,54.593 65.187,70.333l279.619,1.716c27.674,-15.784 49.228,-37.688 63.472,-66.903l5.146,-775.384l988.621,-5.257c36.8,-9.007 57.86,-31.655 65.879,-65.605l0.45,-259.024c-14.824,-37.65 -44.838,-59.601 -88.442,-67.511l-1297.4,-2.274c-39.467,13.047 -69.316,37.461 -87.677,75.451Z" style="fill:#0b343a;stroke:#fff;stroke-width:0.54px;"/><path d="M8881.51,1735.58l-413.423,-567.814l-5.147,-109.789c9.166,-19.879 24.433,-35.618 44.602,-48.032l348.236,1.715l411.708,559.237l3.395,112.334c-6.564,22.863 -22.332,39.152 -45.013,50.503l-344.358,1.846Z" style="fill:#0b343a;stroke:#fff;stroke-width:0.54px;"/><path d="M10442.2,1010.95l-327.17,-3.293l-843.178,1179.13l-1.097,909.6c12.98,27.49 32.192,49.481 61.481,62.58l282.157,-1.098c30.362,-12.778 51.959,-35.965 66.971,-66.971l-2.195,-780.049l823.415,-1168.15l0,-83.44c-16.978,-20.432 -37.265,-36.316 -60.384,-48.307Z" style="fill:#0b343a;stroke:#fff;stroke-width:0.54px;"/><path d="M2867.3,995.372l300.594,-2.389l1061.73,1409.09l0,-1314.47c13.782,-41.922 39.398,-75.652 83.628,-96.494l261.607,-2.144c46.213,26.57 74.494,62.106 87.917,105.071l2.144,1941.68c-13.524,43.813 -35.652,79.501 -70.762,102.927l-346.307,4.289l-1467.78,-2011.37l-2.145,-55.752c15.402,-42.764 45.583,-69.149 89.381,-80.446Z" style="fill:#0b343a;stroke:#fff;stroke-width:0.54px;"/><path d="M2077.02,1717.51l-10.051,696.903c-64.588,425.914 -352.47,709.799 -733.759,753.861c-48.163,-0.105 -81.388,-18.881 -93.813,-63.659l-0,-288.143c16.752,-29.037 42.439,-53.608 77.061,-73.711c160.834,-25.467 262.448,-153.222 324.998,-348.451l13.402,-1313.39c13.541,-36.227 47.884,-62.053 97.164,-80.411l227.834,-3.351c43.766,14.31 73.501,42.649 90.463,83.762l6.701,636.594Z" style="fill:#0b343a;stroke:#fff;stroke-width:0.54px;"/><path d="M220.842,1714.16l10.052,696.903c64.588,425.913 352.469,709.798 733.758,753.861c48.163,-0.105 81.389,-18.882 93.814,-63.66l-0,-288.142c-16.753,-29.038 -42.44,-53.608 -77.061,-73.711c-160.834,-25.467 -262.448,-153.222 -324.998,-348.451l-13.402,-1313.39c-13.542,-36.227 -47.884,-62.054 -97.165,-80.412l-227.833,-3.35c-43.766,14.309 -73.502,42.649 -90.464,83.762l-6.701,636.594Z" style="fill:#0b343a;stroke:#fff;stroke-width:0.54px;"/></g></svg>